<svg width="40" height="40" viewBox="0 0 40 40" fill="none" xmlns="http://www.w3.org/2000/svg">
<path d="M36.6671 4.44446H3.33377C3.03908 4.44446 2.75647 4.56152 2.54809 4.7699C2.33972 4.97827 2.22266 5.26088 2.22266 5.55557V7.41112C2.22286 7.67355 2.27501 7.93335 2.37607 8.17553C2.47714 8.41772 2.62514 8.63751 2.81155 8.82224L15.556 21.7556V33.0889L17.7782 33.9333V21.1111C17.7791 20.9649 17.751 20.8199 17.6957 20.6846C17.6404 20.5492 17.559 20.4261 17.456 20.3222L4.44488 7.32224V6.66668H35.556V7.34446L22.5893 20.3222C22.4783 20.4223 22.3886 20.5438 22.3256 20.6793C22.2626 20.8149 22.2276 20.9617 22.2227 21.1111V35.7889L24.4449 36.6667V21.6667L37.1893 8.8889C37.3787 8.69949 37.5284 8.47415 37.6295 8.2261C37.7306 7.97806 37.7812 7.71231 37.7782 7.44446V5.55557C37.7782 5.26088 37.6611 4.97827 37.4528 4.7699C37.2444 4.56152 36.9618 4.44446 36.6671 4.44446Z" fill="#9F9F9F"/>
</svg>
