<svg width="30" height="30" viewBox="0 0 30 30" fill="none" xmlns="http://www.w3.org/2000/svg">
<g clip-path="url(#clip0_52_860)">
<path d="M16.4828 0.577946C17.5353 0.573908 18.5878 0.584486 19.64 0.609677L19.9198 0.619773C20.2429 0.631312 20.5616 0.645735 20.9467 0.663043C22.4813 0.735158 23.5284 0.977466 24.4472 1.33372C25.3991 1.70006 26.201 2.19622 27.003 2.99814C27.7362 3.71872 28.3037 4.59037 28.6659 5.55247C29.0222 6.47122 29.2645 7.51977 29.3366 9.05439C29.3539 9.43804 29.3684 9.75823 29.3799 10.0813L29.3885 10.3611C29.4142 11.4128 29.4252 12.4649 29.4217 13.5169L29.4232 14.5929V16.4823C29.4267 17.5348 29.4157 18.5873 29.39 19.6395L29.3813 19.9193C29.3698 20.2424 29.3554 20.5611 29.3381 20.9462C29.2659 22.4808 29.0208 23.5279 28.6659 24.4467C28.3049 25.4098 27.7372 26.2822 27.003 27.0025C26.2818 27.7356 25.4097 28.3031 24.4472 28.6654C23.5284 29.0217 22.4813 29.264 20.9467 29.3361C20.5616 29.3534 20.2429 29.3678 19.9198 29.3794L19.64 29.388C18.5878 29.4137 17.5353 29.4247 16.4828 29.4212L15.4068 29.4227H13.5188C12.4663 29.4262 11.4138 29.4152 10.3616 29.3895L10.0818 29.3808C9.73942 29.3684 9.39711 29.354 9.05489 29.3376C7.52027 29.2654 6.47316 29.0203 5.55297 28.6654C4.59049 28.3039 3.71869 27.7363 2.99864 27.0025C2.26457 26.2817 1.69656 25.4095 1.33422 24.4467C0.977966 23.5279 0.735658 22.4808 0.663542 20.9462C0.647479 20.604 0.633056 20.2617 0.620273 19.9193L0.613062 19.6395C0.586471 18.5873 0.57445 17.5348 0.577004 16.4823V13.5169C0.572979 12.4649 0.583557 11.4128 0.608735 10.3611L0.618831 10.0813C0.63037 9.75823 0.644793 9.43804 0.6621 9.05439C0.734216 7.51833 0.976523 6.47266 1.33277 5.55247C1.69533 4.5899 2.26445 3.71849 3.00008 2.99958C3.71964 2.26509 4.59089 1.69656 5.55297 1.33372C6.47316 0.977466 7.51883 0.735158 9.05489 0.663043L10.0818 0.619773L10.3616 0.612562C11.4133 0.585984 12.4654 0.573964 13.5174 0.576504L16.4828 0.577946ZM15.0001 7.78948C14.0446 7.77597 13.0959 7.9525 12.2092 8.30881C11.3225 8.66513 10.5154 9.19412 9.83495 9.86504C9.15447 10.536 8.61412 11.3355 8.2453 12.217C7.87649 13.0986 7.68656 14.0447 7.68656 15.0003C7.68656 15.9559 7.87649 16.902 8.2453 17.7836C8.61412 18.6652 9.15447 19.4646 9.83495 20.1356C10.5154 20.8065 11.3225 21.3355 12.2092 21.6918C13.0959 22.0481 14.0446 22.2246 15.0001 22.2111C16.9127 22.2111 18.747 21.4513 20.0994 20.0989C21.4518 18.7465 22.2116 16.9122 22.2116 14.9996C22.2116 13.087 21.4518 11.2527 20.0994 9.90025C18.747 8.54783 16.9127 7.78948 15.0001 7.78948ZM15.0001 10.6741C15.5749 10.6635 16.146 10.7676 16.6801 10.9802C17.2142 11.1928 17.7006 11.5097 18.1108 11.9124C18.5211 12.3151 18.847 12.7955 19.0695 13.3256C19.292 13.8556 19.4066 14.4247 19.4067 14.9996C19.4068 15.5744 19.2924 16.1436 19.07 16.6737C18.8477 17.2038 18.522 17.6843 18.1118 18.0872C17.7017 18.49 17.2155 18.8071 16.6814 19.0199C16.1474 19.2327 15.5763 19.3369 15.0015 19.3265C13.854 19.3265 12.7534 18.8706 11.9419 18.0592C11.1305 17.2477 10.6746 16.1472 10.6746 14.9996C10.6746 13.852 11.1305 12.7514 11.9419 11.94C12.7534 11.1285 13.854 10.6727 15.0015 10.6727L15.0001 10.6741ZM22.5722 5.62602C22.1069 5.64465 21.6669 5.84259 21.3442 6.17839C21.0216 6.51419 20.8414 6.96179 20.8414 7.42747C20.8414 7.89314 21.0216 8.34075 21.3442 8.67655C21.6669 9.01235 22.1069 9.21029 22.5722 9.22891C23.0504 9.22891 23.5089 9.03896 23.847 8.70086C24.1851 8.36275 24.3751 7.90418 24.3751 7.42602C24.3751 6.94787 24.1851 6.4893 23.847 6.15119C23.5089 5.81309 23.0504 5.62314 22.5722 5.62314V5.62602Z" fill="white"/>
</g>
<defs>
<clipPath id="clip0_52_860">
<rect width="30" height="30" fill="white"/>
</clipPath>
</defs>
</svg>
