<svg width="141" height="24" viewBox="0 0 141 24" fill="none" xmlns="http://www.w3.org/2000/svg">
<path d="M9.5 4C11.2239 4 12.8772 4.68482 14.0962 5.90381C15.3152 7.12279 16 8.77609 16 10.5C16 12.12 15.41 13.6 14.43 14.73L20.08 20.38L19.37 21.09L13.72 15.44C12.5453 16.4482 11.048 17.0017 9.5 17C7.77609 17 6.12279 16.3152 4.90381 15.0962C3.68482 13.8772 3 12.2239 3 10.5C3 8.77609 3.68482 7.12279 4.90381 5.90381C6.12279 4.68482 7.77609 4 9.5 4ZM9.5 5C8.04131 5 6.64236 5.57946 5.61091 6.61091C4.57946 7.64236 4 9.04131 4 10.5C4 11.9587 4.57946 13.3576 5.61091 14.3891C6.64236 15.4205 8.04131 16 9.5 16C10.2223 16 10.9375 15.8577 11.6048 15.5813C12.272 15.3049 12.8784 14.8998 13.3891 14.3891C13.8998 13.8784 14.3049 13.272 14.5813 12.6048C14.8577 11.9375 15 11.2223 15 10.5C15 9.77773 14.8577 9.06253 14.5813 8.39524C14.3049 7.72795 13.8998 7.12163 13.3891 6.61091C12.8784 6.10019 12.272 5.69506 11.6048 5.41866C10.9375 5.14226 10.2223 5 9.5 5Z" fill="white"/>
<path d="M50.5 14C54.64 14 58 15.57 58 17.5V20H43V17.5C43 15.57 46.36 14 50.5 14ZM57 17.5C57 16.12 54.09 15 50.5 15C46.91 15 44 16.12 44 17.5V19H57V17.5ZM50.5 5C51.4283 5 52.3185 5.36875 52.9749 6.02513C53.6313 6.6815 54 7.57174 54 8.5C54 9.42826 53.6313 10.3185 52.9749 10.9749C52.3185 11.6313 51.4283 12 50.5 12C49.5717 12 48.6815 11.6313 48.0251 10.9749C47.3687 10.3185 47 9.42826 47 8.5C47 7.57174 47.3687 6.6815 48.0251 6.02513C48.6815 5.36875 49.5717 5 50.5 5ZM50.5 6C49.837 6 49.2011 6.26339 48.7322 6.73223C48.2634 7.20107 48 7.83696 48 8.5C48 9.16304 48.2634 9.79893 48.7322 10.2678C49.2011 10.7366 49.837 11 50.5 11C51.163 11 51.7989 10.7366 52.2678 10.2678C52.7366 9.79893 53 9.16304 53 8.5C53 7.83696 52.7366 7.20107 52.2678 6.73223C51.7989 6.26339 51.163 6 50.5 6Z" fill="white"/>
<path d="M82.24 12.25C81.8442 11.8576 81.5306 11.3901 81.3177 10.875C81.1047 10.3598 80.9968 9.80738 81 9.24999C81 8.12282 81.4478 7.04182 82.2448 6.24479C83.0418 5.44776 84.1228 4.99999 85.25 4.99999C86.83 4.99999 88.21 5.85999 88.94 7.13999H90.06C90.4312 6.48912 90.9682 5.9482 91.6164 5.5723C92.2645 5.1964 93.0007 4.99893 93.75 4.99999C94.8772 4.99999 95.9582 5.44776 96.7552 6.24479C97.5522 7.04182 98 8.12282 98 9.24999C98 10.42 97.5 11.5 96.76 12.25L89.5 19.5L82.24 12.25ZM97.46 12.96C98.41 12 99 10.7 99 9.24999C99 7.8576 98.4469 6.52225 97.4623 5.53768C96.4777 4.55311 95.1424 3.99999 93.75 3.99999C92 3.99999 90.45 4.84999 89.5 6.16999C89.0152 5.49637 88.3767 4.9481 87.6376 4.5707C86.8984 4.19329 86.0799 3.99764 85.25 3.99999C83.8576 3.99999 82.5223 4.55311 81.5377 5.53768C80.5531 6.52225 80 7.8576 80 9.24999C80 10.7 80.59 12 81.54 12.96L89.5 20.92L97.46 12.96Z" fill="white"/>
<path d="M133 18C133.53 18 134.039 18.2107 134.414 18.5858C134.789 18.9609 135 19.4696 135 20C135 20.5304 134.789 21.0391 134.414 21.4142C134.039 21.7893 133.53 22 133 22C132.47 22 131.961 21.7893 131.586 21.4142C131.211 21.0391 131 20.5304 131 20C131 19.4696 131.211 18.9609 131.586 18.5858C131.961 18.2107 132.47 18 133 18ZM133 19C132.735 19 132.48 19.1054 132.293 19.2929C132.105 19.4804 132 19.7348 132 20C132 20.2652 132.105 20.5196 132.293 20.7071C132.48 20.8946 132.735 21 133 21C133.265 21 133.52 20.8946 133.707 20.7071C133.895 20.5196 134 20.2652 134 20C134 19.7348 133.895 19.4804 133.707 19.2929C133.52 19.1054 133.265 19 133 19ZM124 18C124.53 18 125.039 18.2107 125.414 18.5858C125.789 18.9609 126 19.4696 126 20C126 20.5304 125.789 21.0391 125.414 21.4142C125.039 21.7893 124.53 22 124 22C123.47 22 122.961 21.7893 122.586 21.4142C122.211 21.0391 122 20.5304 122 20C122 19.4696 122.211 18.9609 122.586 18.5858C122.961 18.2107 123.47 18 124 18ZM124 19C123.735 19 123.48 19.1054 123.293 19.2929C123.105 19.4804 123 19.7348 123 20C123 20.2652 123.105 20.5196 123.293 20.7071C123.48 20.8946 123.735 21 124 21C124.265 21 124.52 20.8946 124.707 20.7071C124.895 20.5196 125 20.2652 125 20C125 19.7348 124.895 19.4804 124.707 19.2929C124.52 19.1054 124.265 19 124 19ZM135 6H121.27L123.82 12H132C132.33 12 132.62 11.84 132.8 11.6L135.8 7.6C135.93 7.43 136 7.22 136 7C136 6.73478 135.895 6.48043 135.707 6.29289C135.52 6.10536 135.265 6 135 6ZM132 13H123.87L123.1 14.56L123 15C123 15.2652 123.105 15.5196 123.293 15.7071C123.48 15.8946 123.735 16 124 16H135V17H124C123.47 17 122.961 16.7893 122.586 16.4142C122.211 16.0391 122 15.5304 122 15C122 14.6607 122.086 14.3269 122.25 14.03L122.97 12.56L119.34 4H118V3H120L120.85 5H135C135.53 5 136.039 5.21071 136.414 5.58579C136.789 5.96086 137 6.46957 137 7C137 7.5 136.83 7.92 136.55 8.26L133.64 12.15C133.28 12.66 132.68 13 132 13Z" fill="white"/>
</svg>
