<svg width="339" height="234" viewBox="0 0 339 234" fill="none" xmlns="http://www.w3.org/2000/svg">
<g opacity="0.3" filter="url(#filter0_f_9_72)">
<rect x="100" y="70" width="139" height="64" rx="27.5" fill="white"/>
</g>
<path d="M171.016 79.4258H171.562C171.654 79.8164 171.758 80.2005 171.875 80.5781C171.992 80.9557 172.155 81.2878 172.363 81.5742C172.585 81.8737 172.865 82.1146 173.203 82.2969C173.542 82.4661 173.984 82.5508 174.531 82.5508C175.534 82.5508 176.354 82.2839 176.992 81.75C177.63 81.2161 177.949 80.5456 177.949 79.7383C177.949 79.2695 177.865 78.8594 177.695 78.5078C177.526 78.1432 177.305 77.8242 177.031 77.5508C176.745 77.2773 176.413 77.0299 176.035 76.8086C175.671 76.5872 175.286 76.3659 174.883 76.1445C174.466 75.9362 174.056 75.7018 173.652 75.4414C173.249 75.181 172.878 74.888 172.539 74.5625C172.214 74.224 171.947 73.8464 171.738 73.4297C171.543 73 171.445 72.5182 171.445 71.9844C171.445 71.2943 171.556 70.6953 171.777 70.1875C171.999 69.6797 172.305 69.263 172.695 68.9375C173.086 68.599 173.542 68.3516 174.062 68.1953C174.583 68.026 175.143 67.9414 175.742 67.9414C175.938 67.9414 176.126 67.9544 176.309 67.9805C176.491 67.9935 176.673 68.0065 176.855 68.0195C177.038 68.0456 177.22 68.0781 177.402 68.1172C177.598 68.1432 177.806 68.1693 178.027 68.1953L178.359 70.8906H177.852C177.721 70.1094 177.493 69.5234 177.168 69.1328C176.842 68.7422 176.27 68.5469 175.449 68.5469C174.434 68.5469 173.672 68.8203 173.164 69.3672C172.669 69.901 172.422 70.5391 172.422 71.2812C172.422 71.75 172.526 72.1732 172.734 72.5508C172.943 72.9154 173.21 73.2474 173.535 73.5469C173.874 73.8464 174.251 74.1133 174.668 74.3477C175.085 74.582 175.508 74.8034 175.938 75.0117C176.354 75.2331 176.751 75.4674 177.129 75.7148C177.52 75.9492 177.865 76.2161 178.164 76.5156C178.464 76.8281 178.704 77.1862 178.887 77.5898C179.069 77.9805 179.16 78.4297 179.16 78.9375C179.16 79.6406 179.017 80.2591 178.73 80.793C178.457 81.3138 178.099 81.7565 177.656 82.1211C177.201 82.4727 176.686 82.7396 176.113 82.9219C175.553 83.0911 174.987 83.1758 174.414 83.1758C173.88 83.1758 173.359 83.1237 172.852 83.0195C172.357 82.9154 171.901 82.7656 171.484 82.5703L171.016 79.4258ZM186.543 78.0781C185.111 78.5078 184.036 78.9115 183.32 79.2891C182.617 79.6536 182.266 80.1224 182.266 80.6953C182.266 81.2943 182.415 81.7044 182.715 81.9258C183.027 82.1341 183.457 82.2383 184.004 82.2383C184.486 82.2383 184.948 82.1081 185.391 81.8477C185.833 81.5872 186.217 81.2812 186.543 80.9297V78.0781ZM189.492 82.1016C189.206 82.375 188.9 82.6224 188.574 82.8438C188.262 83.0651 187.943 83.1758 187.617 83.1758C187.305 83.1758 187.051 83.0326 186.855 82.7461C186.673 82.4596 186.569 82.043 186.543 81.4961C186.061 82.0039 185.527 82.4141 184.941 82.7266C184.355 83.026 183.743 83.1758 183.105 83.1758C182.52 83.1758 182.025 82.987 181.621 82.6094C181.217 82.2188 181.029 81.7305 181.055 81.1445C181.068 80.6628 181.211 80.2526 181.484 79.9141C181.771 79.5625 182.161 79.2565 182.656 78.9961C183.138 78.7357 183.711 78.4948 184.375 78.2734C185.039 78.0521 185.762 77.8177 186.543 77.5703V76.2227C186.543 75.6497 186.406 75.181 186.133 74.8164C185.872 74.4388 185.358 74.25 184.59 74.25C184.043 74.25 183.555 74.4128 183.125 74.7383C182.708 75.0508 182.493 75.4349 182.48 75.8906C182.48 76.2031 182.415 76.431 182.285 76.5742C182.168 76.7174 182.018 76.7891 181.836 76.7891C181.68 76.7891 181.556 76.724 181.465 76.5938C181.387 76.4635 181.348 76.2943 181.348 76.0859C181.348 75.7344 181.51 75.3958 181.836 75.0703C182.174 74.7448 182.715 74.3867 183.457 73.9961C183.887 73.7617 184.238 73.5924 184.512 73.4883C184.798 73.3841 185.098 73.332 185.41 73.332C186.035 73.332 186.576 73.5208 187.031 73.8984C187.5 74.276 187.734 74.8229 187.734 75.5391V80.8711C187.734 81.6003 187.891 82.0169 188.203 82.1211C188.529 82.2253 188.939 82.1081 189.434 81.7695L189.492 82.1016ZM196.641 75.5586C197.24 75.0508 197.533 74.6862 197.52 74.4648C197.507 74.2305 197.201 74.1198 196.602 74.1328V73.6055C196.784 73.6315 197.044 73.651 197.383 73.6641C197.734 73.6641 198.099 73.6641 198.477 73.6641C198.854 73.6641 199.206 73.6641 199.531 73.6641C199.87 73.651 200.124 73.6315 200.293 73.6055V74.1328C200.02 74.1328 199.772 74.1654 199.551 74.2305C199.342 74.2956 199.141 74.3802 198.945 74.4844C198.737 74.5885 198.535 74.7122 198.34 74.8555C198.158 74.9857 197.969 75.1289 197.773 75.2852L194.98 77.5898L198.496 81.4375C198.9 81.8802 199.29 82.1471 199.668 82.2383C200.046 82.3294 200.443 82.3815 200.859 82.3945V82.8438C200.703 82.8438 200.508 82.8438 200.273 82.8438C200.039 82.8307 199.792 82.8242 199.531 82.8242C199.284 82.8242 199.036 82.8307 198.789 82.8438C198.555 82.8438 198.372 82.8438 198.242 82.8438C198.177 82.7786 198.112 82.7135 198.047 82.6484C197.995 82.5703 197.936 82.4987 197.871 82.4336C197.819 82.3685 197.76 82.3034 197.695 82.2383C197.63 82.1602 197.572 82.082 197.52 82.0039L194.18 78.2539L193.398 78.8984V80.8516C193.398 81.5156 193.49 81.9323 193.672 82.1016C193.854 82.2708 194.238 82.3555 194.824 82.3555V82.8438C194.616 82.8307 194.323 82.8242 193.945 82.8242C193.581 82.8112 193.203 82.8047 192.812 82.8047C192.409 82.8047 192.018 82.8112 191.641 82.8242C191.276 82.8242 190.996 82.8307 190.801 82.8438V82.3555C191.374 82.3555 191.745 82.2708 191.914 82.1016C192.096 81.9323 192.188 81.5156 192.188 80.8516V69.9531C192.188 69.6146 192.168 69.3477 192.129 69.1523C192.103 68.944 192.044 68.7812 191.953 68.6641C191.862 68.5599 191.725 68.4948 191.543 68.4688C191.374 68.4427 191.152 68.4297 190.879 68.4297V68.0391C191.296 67.9609 191.699 67.8438 192.09 67.6875C192.493 67.5182 192.845 67.2969 193.145 67.0234H193.496C193.457 67.375 193.431 67.7526 193.418 68.1562C193.405 68.5469 193.398 68.8984 193.398 69.2109V78.2734L196.641 75.5586ZM203.418 69.9531C203.418 69.6146 203.398 69.3477 203.359 69.1523C203.333 68.944 203.275 68.7812 203.184 68.6641C203.092 68.5599 202.956 68.4948 202.773 68.4688C202.604 68.4427 202.383 68.4297 202.109 68.4297V68.0391C202.526 67.9609 202.93 67.8438 203.32 67.6875C203.724 67.5182 204.076 67.2969 204.375 67.0234H204.727C204.688 67.375 204.661 67.7526 204.648 68.1562C204.635 68.5469 204.629 68.8984 204.629 69.2109V75.4609C204.824 75.2396 205.046 75.0052 205.293 74.7578C205.553 74.5104 205.827 74.276 206.113 74.0547C206.413 73.8464 206.725 73.6706 207.051 73.5273C207.389 73.3841 207.734 73.3125 208.086 73.3125C208.893 73.3125 209.525 73.612 209.98 74.2109C210.436 74.8099 210.664 75.5586 210.664 76.457V80.832C210.664 81.1315 210.671 81.3789 210.684 81.5742C210.71 81.7695 210.768 81.9258 210.859 82.043C210.951 82.1602 211.094 82.2448 211.289 82.2969C211.484 82.3359 211.751 82.3555 212.09 82.3555V82.8438C211.908 82.8438 211.732 82.8438 211.562 82.8438C211.406 82.8438 211.25 82.8372 211.094 82.8242C210.938 82.8242 210.775 82.8242 210.605 82.8242C210.436 82.8112 210.254 82.8047 210.059 82.8047C209.863 82.8047 209.681 82.8112 209.512 82.8242C209.355 82.8242 209.199 82.8242 209.043 82.8242C208.887 82.8242 208.724 82.8307 208.555 82.8438C208.398 82.8438 208.229 82.8438 208.047 82.8438V82.3555C208.333 82.3555 208.568 82.3424 208.75 82.3164C208.945 82.2904 209.095 82.2253 209.199 82.1211C209.303 82.0169 209.375 81.8672 209.414 81.6719C209.453 81.4635 209.473 81.1836 209.473 80.832V77.668C209.473 77.0299 209.434 76.5091 209.355 76.1055C209.29 75.6888 209.173 75.3568 209.004 75.1094C208.848 74.862 208.633 74.6927 208.359 74.6016C208.099 74.4974 207.773 74.4453 207.383 74.4453C206.901 74.4453 206.4 74.6276 205.879 74.9922C205.358 75.3438 204.941 75.7344 204.629 76.1641V80.832C204.629 81.444 204.707 81.8542 204.863 82.0625C205.033 82.2578 205.43 82.3555 206.055 82.3555V82.8438C205.859 82.8438 205.684 82.8438 205.527 82.8438C205.371 82.8438 205.215 82.8372 205.059 82.8242C204.902 82.8242 204.74 82.8242 204.57 82.8242C204.414 82.8112 204.245 82.8047 204.062 82.8047C203.867 82.8047 203.685 82.8112 203.516 82.8242C203.359 82.8242 203.203 82.8242 203.047 82.8242C202.878 82.8242 202.708 82.8307 202.539 82.8438C202.383 82.8438 202.214 82.8438 202.031 82.8438V82.3555C202.617 82.3555 202.995 82.2578 203.164 82.0625C203.333 81.8672 203.418 81.457 203.418 80.832V69.9531ZM219.062 78.0781C217.63 78.5078 216.556 78.9115 215.84 79.2891C215.137 79.6536 214.785 80.1224 214.785 80.6953C214.785 81.2943 214.935 81.7044 215.234 81.9258C215.547 82.1341 215.977 82.2383 216.523 82.2383C217.005 82.2383 217.467 82.1081 217.91 81.8477C218.353 81.5872 218.737 81.2812 219.062 80.9297V78.0781ZM222.012 82.1016C221.725 82.375 221.419 82.6224 221.094 82.8438C220.781 83.0651 220.462 83.1758 220.137 83.1758C219.824 83.1758 219.57 83.0326 219.375 82.7461C219.193 82.4596 219.089 82.043 219.062 81.4961C218.581 82.0039 218.047 82.4141 217.461 82.7266C216.875 83.026 216.263 83.1758 215.625 83.1758C215.039 83.1758 214.544 82.987 214.141 82.6094C213.737 82.2188 213.548 81.7305 213.574 81.1445C213.587 80.6628 213.73 80.2526 214.004 79.9141C214.29 79.5625 214.681 79.2565 215.176 78.9961C215.658 78.7357 216.23 78.4948 216.895 78.2734C217.559 78.0521 218.281 77.8177 219.062 77.5703V76.2227C219.062 75.6497 218.926 75.181 218.652 74.8164C218.392 74.4388 217.878 74.25 217.109 74.25C216.562 74.25 216.074 74.4128 215.645 74.7383C215.228 75.0508 215.013 75.4349 215 75.8906C215 76.2031 214.935 76.431 214.805 76.5742C214.688 76.7174 214.538 76.7891 214.355 76.7891C214.199 76.7891 214.076 76.724 213.984 76.5938C213.906 76.4635 213.867 76.2943 213.867 76.0859C213.867 75.7344 214.03 75.3958 214.355 75.0703C214.694 74.7448 215.234 74.3867 215.977 73.9961C216.406 73.7617 216.758 73.5924 217.031 73.4883C217.318 73.3841 217.617 73.332 217.93 73.332C218.555 73.332 219.095 73.5208 219.551 73.8984C220.02 74.276 220.254 74.8229 220.254 75.5391V80.8711C220.254 81.6003 220.41 82.0169 220.723 82.1211C221.048 82.2253 221.458 82.1081 221.953 81.7695L222.012 82.1016ZM172.617 95.5781C172.617 95.2135 172.591 94.9141 172.539 94.6797C172.487 94.4453 172.396 94.263 172.266 94.1328C172.122 93.9896 171.921 93.8919 171.66 93.8398C171.413 93.7878 171.087 93.7617 170.684 93.7617V93.2734C171.504 93.2865 172.422 93.293 173.438 93.293C174.466 93.293 175.449 93.2865 176.387 93.2734C177.65 93.2734 178.776 93.4753 179.766 93.8789C180.768 94.2826 181.608 94.8229 182.285 95.5C182.975 96.1771 183.496 96.9518 183.848 97.8242C184.212 98.6966 184.395 99.6016 184.395 100.539C184.395 101.464 184.225 102.368 183.887 103.254C183.548 104.126 183.04 104.901 182.363 105.578C181.673 106.268 180.814 106.822 179.785 107.238C178.757 107.642 177.546 107.844 176.152 107.844C175.762 107.844 175.332 107.844 174.863 107.844C174.395 107.831 173.913 107.824 173.418 107.824C172.923 107.824 172.435 107.831 171.953 107.844C171.484 107.844 171.061 107.844 170.684 107.844V107.316C171.087 107.316 171.413 107.297 171.66 107.258C171.921 107.206 172.122 107.108 172.266 106.965C172.396 106.822 172.487 106.626 172.539 106.379C172.591 106.118 172.617 105.786 172.617 105.383V95.5781ZM173.926 105.402C173.926 105.806 173.958 106.132 174.023 106.379C174.089 106.613 174.212 106.796 174.395 106.926C174.577 107.056 174.837 107.141 175.176 107.18C175.514 107.219 175.951 107.238 176.484 107.238C177.617 107.238 178.594 107.056 179.414 106.691C180.234 106.327 180.905 105.839 181.426 105.227C181.96 104.615 182.35 103.898 182.598 103.078C182.845 102.258 182.969 101.398 182.969 100.5C182.969 99.4714 182.806 98.5534 182.48 97.7461C182.155 96.9258 181.693 96.2292 181.094 95.6562C180.482 95.0964 179.74 94.6667 178.867 94.3672C178.008 94.0547 177.031 93.8984 175.938 93.8984C175.703 93.8984 175.482 93.9049 175.273 93.918C175.078 93.918 174.896 93.9245 174.727 93.9375C174.544 93.9505 174.388 93.9635 174.258 93.9766C174.128 93.9766 174.017 93.9766 173.926 93.9766V105.402ZM189.043 106.047C189.043 106.607 189.134 106.965 189.316 107.121C189.499 107.277 189.876 107.355 190.449 107.355V107.844C190.267 107.844 190.098 107.844 189.941 107.844C189.785 107.844 189.629 107.837 189.473 107.824C189.316 107.824 189.154 107.824 188.984 107.824C188.828 107.811 188.659 107.805 188.477 107.805C188.281 107.805 188.099 107.811 187.93 107.824C187.773 107.824 187.617 107.824 187.461 107.824C187.292 107.824 187.122 107.831 186.953 107.844C186.797 107.844 186.628 107.844 186.445 107.844V107.355C187.018 107.355 187.396 107.277 187.578 107.121C187.76 106.965 187.852 106.607 187.852 106.047V101.262C187.852 100.91 187.839 100.63 187.812 100.422C187.786 100.214 187.734 100.051 187.656 99.9336C187.578 99.8164 187.461 99.7383 187.305 99.6992C187.148 99.6602 186.934 99.6406 186.66 99.6406V99.2305C187.077 99.1654 187.454 99.0677 187.793 98.9375C188.145 98.8073 188.47 98.6055 188.77 98.332H189.121C189.082 98.6836 189.056 99.0612 189.043 99.4648C189.043 99.8555 189.043 100.207 189.043 100.52V106.047ZM187.441 94.0547C187.441 93.7943 187.533 93.5664 187.715 93.3711C187.91 93.1758 188.138 93.0781 188.398 93.0781C188.659 93.0781 188.887 93.1758 189.082 93.3711C189.277 93.5664 189.375 93.7943 189.375 94.0547C189.375 94.3151 189.277 94.543 189.082 94.7383C188.887 94.9206 188.659 95.0117 188.398 95.0117C188.138 95.0117 187.91 94.9206 187.715 94.7383C187.533 94.543 187.441 94.3151 187.441 94.0547ZM197.52 103.078C196.087 103.508 195.013 103.911 194.297 104.289C193.594 104.654 193.242 105.122 193.242 105.695C193.242 106.294 193.392 106.704 193.691 106.926C194.004 107.134 194.434 107.238 194.98 107.238C195.462 107.238 195.924 107.108 196.367 106.848C196.81 106.587 197.194 106.281 197.52 105.93V103.078ZM200.469 107.102C200.182 107.375 199.876 107.622 199.551 107.844C199.238 108.065 198.919 108.176 198.594 108.176C198.281 108.176 198.027 108.033 197.832 107.746C197.65 107.46 197.546 107.043 197.52 106.496C197.038 107.004 196.504 107.414 195.918 107.727C195.332 108.026 194.72 108.176 194.082 108.176C193.496 108.176 193.001 107.987 192.598 107.609C192.194 107.219 192.005 106.73 192.031 106.145C192.044 105.663 192.188 105.253 192.461 104.914C192.747 104.562 193.138 104.257 193.633 103.996C194.115 103.736 194.688 103.495 195.352 103.273C196.016 103.052 196.738 102.818 197.52 102.57V101.223C197.52 100.65 197.383 100.181 197.109 99.8164C196.849 99.4388 196.335 99.25 195.566 99.25C195.02 99.25 194.531 99.4128 194.102 99.7383C193.685 100.051 193.47 100.435 193.457 100.891C193.457 101.203 193.392 101.431 193.262 101.574C193.145 101.717 192.995 101.789 192.812 101.789C192.656 101.789 192.533 101.724 192.441 101.594C192.363 101.464 192.324 101.294 192.324 101.086C192.324 100.734 192.487 100.396 192.812 100.07C193.151 99.7448 193.691 99.3867 194.434 98.9961C194.863 98.7617 195.215 98.5924 195.488 98.4883C195.775 98.3841 196.074 98.332 196.387 98.332C197.012 98.332 197.552 98.5208 198.008 98.8984C198.477 99.276 198.711 99.8229 198.711 100.539V105.871C198.711 106.6 198.867 107.017 199.18 107.121C199.505 107.225 199.915 107.108 200.41 106.77L200.469 107.102ZM204.453 98.332C204.414 98.6836 204.388 99.0352 204.375 99.3867C204.375 99.7383 204.375 99.9922 204.375 100.148C204.648 99.9531 204.935 99.7448 205.234 99.5234C205.547 99.3021 205.859 99.1068 206.172 98.9375C206.497 98.7552 206.823 98.6055 207.148 98.4883C207.474 98.3711 207.799 98.3125 208.125 98.3125C208.594 98.3125 209.01 98.4492 209.375 98.7227C209.753 98.9831 210.033 99.4453 210.215 100.109C210.762 99.6797 211.354 99.276 211.992 98.8984C212.63 98.5078 213.275 98.3125 213.926 98.3125C214.316 98.3125 214.648 98.3971 214.922 98.5664C215.208 98.7227 215.443 98.9375 215.625 99.2109C215.807 99.4844 215.944 99.8034 216.035 100.168C216.126 100.52 216.172 100.884 216.172 101.262V105.91C216.172 106.457 216.257 106.835 216.426 107.043C216.608 107.251 216.973 107.355 217.52 107.355V107.844C216.986 107.831 216.341 107.824 215.586 107.824C214.844 107.811 214.186 107.818 213.613 107.844V107.355C214.173 107.355 214.538 107.251 214.707 107.043C214.889 106.835 214.98 106.457 214.98 105.91V101.984C214.98 101.633 214.961 101.301 214.922 100.988C214.883 100.663 214.798 100.383 214.668 100.148C214.538 99.9141 214.342 99.7253 214.082 99.582C213.835 99.4388 213.49 99.3672 213.047 99.3672C212.799 99.3672 212.539 99.4193 212.266 99.5234C212.005 99.6146 211.745 99.7318 211.484 99.875C211.237 100.005 211.003 100.148 210.781 100.305C210.573 100.461 210.404 100.591 210.273 100.695V105.91C210.273 106.457 210.365 106.835 210.547 107.043C210.742 107.251 211.126 107.355 211.699 107.355V107.844C211.413 107.844 211.094 107.844 210.742 107.844C210.404 107.831 210.059 107.824 209.707 107.824C209.342 107.824 208.984 107.824 208.633 107.824C208.294 107.824 207.988 107.831 207.715 107.844V107.355C208.262 107.355 208.62 107.251 208.789 107.043C208.971 106.835 209.062 106.457 209.062 105.91V101.984C209.062 101.633 209.043 101.301 209.004 100.988C208.978 100.663 208.9 100.383 208.77 100.148C208.639 99.9141 208.451 99.7253 208.203 99.582C207.956 99.4388 207.611 99.3672 207.168 99.3672C206.973 99.3672 206.751 99.4128 206.504 99.5039C206.27 99.582 206.022 99.6862 205.762 99.8164C205.501 99.9596 205.247 100.116 205 100.285C204.766 100.441 204.557 100.604 204.375 100.773V105.91C204.375 106.457 204.46 106.835 204.629 107.043C204.811 107.251 205.182 107.355 205.742 107.355V107.844C205.182 107.831 204.518 107.824 203.75 107.824C202.995 107.811 202.324 107.818 201.738 107.844V107.355C202.324 107.355 202.708 107.251 202.891 107.043C203.073 106.835 203.164 106.457 203.164 105.91V101.262C203.164 100.91 203.151 100.63 203.125 100.422C203.112 100.214 203.066 100.051 202.988 99.9336C202.91 99.8164 202.793 99.7383 202.637 99.6992C202.48 99.6602 202.266 99.6406 201.992 99.6406V99.2305C202.409 99.1654 202.786 99.0677 203.125 98.9375C203.477 98.8073 203.796 98.6055 204.082 98.332H204.453ZM228.398 103.195C228.398 103.885 228.275 104.536 228.027 105.148C227.78 105.747 227.448 106.268 227.031 106.711C226.615 107.167 226.126 107.525 225.566 107.785C225.02 108.046 224.434 108.176 223.809 108.176C223.158 108.176 222.539 108.065 221.953 107.844C221.367 107.622 220.853 107.297 220.41 106.867C219.967 106.451 219.616 105.943 219.355 105.344C219.095 104.732 218.965 104.048 218.965 103.293C218.965 102.616 219.076 101.978 219.297 101.379C219.531 100.767 219.85 100.233 220.254 99.7773C220.671 99.3346 221.159 98.9831 221.719 98.7227C222.279 98.4492 222.891 98.3125 223.555 98.3125C224.232 98.3125 224.863 98.4297 225.449 98.6641C226.048 98.8854 226.562 99.2109 226.992 99.6406C227.422 100.057 227.76 100.572 228.008 101.184C228.268 101.783 228.398 102.453 228.398 103.195ZM226.953 103.41C226.953 102.928 226.895 102.421 226.777 101.887C226.66 101.34 226.471 100.845 226.211 100.402C225.938 99.9466 225.586 99.5755 225.156 99.2891C224.74 98.9896 224.225 98.8398 223.613 98.8398C223.027 98.8398 222.526 98.9701 222.109 99.2305C221.706 99.4909 221.38 99.8229 221.133 100.227C220.885 100.643 220.703 101.105 220.586 101.613C220.482 102.108 220.43 102.596 220.43 103.078C220.43 103.534 220.488 104.029 220.605 104.562C220.723 105.083 220.911 105.572 221.172 106.027C221.432 106.483 221.771 106.867 222.188 107.18C222.617 107.479 223.145 107.629 223.77 107.629C224.355 107.629 224.85 107.499 225.254 107.238C225.658 106.978 225.983 106.639 226.23 106.223C226.491 105.819 226.673 105.37 226.777 104.875C226.895 104.367 226.953 103.879 226.953 103.41ZM232.559 98.332C232.52 98.6836 232.493 99.0286 232.48 99.3672C232.48 99.7057 232.48 99.9596 232.48 100.129C233.066 99.6992 233.698 99.2891 234.375 98.8984C235.052 98.5078 235.703 98.3125 236.328 98.3125C237.109 98.3125 237.669 98.599 238.008 99.1719C238.346 99.7318 238.516 100.415 238.516 101.223V105.852C238.516 106.398 238.607 106.789 238.789 107.023C238.971 107.245 239.355 107.355 239.941 107.355V107.844C239.759 107.844 239.583 107.844 239.414 107.844C239.258 107.844 239.102 107.837 238.945 107.824C238.789 107.824 238.626 107.824 238.457 107.824C238.301 107.811 238.132 107.805 237.949 107.805C237.754 107.805 237.572 107.811 237.402 107.824C237.246 107.824 237.09 107.824 236.934 107.824C236.777 107.824 236.615 107.831 236.445 107.844C236.289 107.844 236.12 107.844 235.938 107.844V107.355C236.497 107.355 236.868 107.245 237.051 107.023C237.233 106.789 237.324 106.398 237.324 105.852V101.203C237.324 100.552 237.174 100.083 236.875 99.7969C236.576 99.5104 236.081 99.3672 235.391 99.3672C235.195 99.3802 234.967 99.4323 234.707 99.5234C234.447 99.6016 234.186 99.6992 233.926 99.8164C233.652 99.9466 233.385 100.09 233.125 100.246C232.878 100.402 232.663 100.559 232.48 100.715V105.852C232.48 106.398 232.572 106.789 232.754 107.023C232.936 107.245 233.32 107.355 233.906 107.355V107.844C233.711 107.844 233.535 107.844 233.379 107.844C233.223 107.844 233.066 107.837 232.91 107.824C232.754 107.824 232.591 107.824 232.422 107.824C232.266 107.811 232.096 107.805 231.914 107.805C231.719 107.805 231.536 107.811 231.367 107.824C231.211 107.824 231.055 107.824 230.898 107.824C230.729 107.824 230.56 107.831 230.391 107.844C230.234 107.844 230.065 107.844 229.883 107.844V107.355C230.456 107.355 230.827 107.245 230.996 107.023C231.178 106.789 231.27 106.398 231.27 105.852V101.262C231.27 100.91 231.257 100.63 231.23 100.422C231.217 100.214 231.172 100.051 231.094 99.9336C231.016 99.8164 230.898 99.7383 230.742 99.6992C230.586 99.6602 230.371 99.6406 230.098 99.6406V99.2305C230.514 99.1654 230.892 99.0677 231.23 98.9375C231.582 98.8073 231.901 98.6055 232.188 98.332H232.559ZM248.594 100.891C248.594 100.513 248.509 100.201 248.34 99.9531C248.171 99.6927 247.969 99.4909 247.734 99.3477C247.487 99.2044 247.22 99.1003 246.934 99.0352C246.647 98.9701 246.38 98.9375 246.133 98.9375C245.716 98.9375 245.299 99.0286 244.883 99.2109C244.479 99.3802 244.121 99.6406 243.809 99.9922C243.483 100.344 243.223 100.786 243.027 101.32C242.832 101.841 242.734 102.453 242.734 103.156C242.734 104.302 243.027 105.246 243.613 105.988C244.212 106.73 245.046 107.102 246.113 107.102C246.283 107.102 246.51 107.069 246.797 107.004C247.083 106.926 247.357 106.822 247.617 106.691C247.878 106.561 248.105 106.411 248.301 106.242C248.496 106.073 248.594 105.891 248.594 105.695V100.891ZM248.594 94.9531C248.594 94.6146 248.574 94.3477 248.535 94.1523C248.509 93.944 248.444 93.7812 248.34 93.6641C248.249 93.5599 248.112 93.4948 247.93 93.4688C247.76 93.4427 247.539 93.4297 247.266 93.4297V93.0391C247.682 92.9609 248.086 92.8438 248.477 92.6875C248.88 92.5182 249.232 92.2969 249.531 92.0234H249.883C249.844 92.375 249.818 92.7526 249.805 93.1562C249.792 93.5469 249.785 93.8984 249.785 94.2109V106.066C249.785 106.509 249.896 106.776 250.117 106.867C250.352 106.945 250.703 106.971 251.172 106.945V107.336C250.924 107.414 250.566 107.544 250.098 107.727C249.642 107.909 249.219 108.085 248.828 108.254C248.75 108.293 248.691 108.293 248.652 108.254C248.613 108.228 248.594 108.176 248.594 108.098V106.633C248.06 107.141 247.507 107.525 246.934 107.785C246.374 108.033 245.82 108.156 245.273 108.156C244.701 108.156 244.173 108.033 243.691 107.785C243.223 107.525 242.819 107.18 242.48 106.75C242.142 106.333 241.882 105.852 241.699 105.305C241.517 104.745 241.426 104.172 241.426 103.586C241.426 102.883 241.556 102.212 241.816 101.574C242.077 100.936 242.435 100.376 242.891 99.8945C243.333 99.4128 243.854 99.0286 244.453 98.7422C245.052 98.4557 245.69 98.3125 246.367 98.3125C246.68 98.3125 247.005 98.3516 247.344 98.4297C247.695 98.4948 248.112 98.638 248.594 98.8594V94.9531ZM174.043 124.875H176.992C177.565 124.875 177.962 124.751 178.184 124.504C178.418 124.257 178.535 123.781 178.535 123.078H179.004V127.707H178.535C178.535 127.29 178.509 126.952 178.457 126.691C178.418 126.431 178.34 126.229 178.223 126.086C178.105 125.93 177.943 125.826 177.734 125.773C177.539 125.721 177.285 125.695 176.973 125.695H174.043V130.305C174.043 130.721 174.069 131.06 174.121 131.32C174.186 131.568 174.316 131.757 174.512 131.887C174.694 132.03 174.948 132.128 175.273 132.18C175.612 132.219 176.048 132.238 176.582 132.238H177.93C178.477 132.238 178.932 132.199 179.297 132.121C179.661 132.043 179.967 131.906 180.215 131.711C180.462 131.516 180.671 131.255 180.84 130.93C181.009 130.591 181.178 130.168 181.348 129.66H181.855C181.764 129.921 181.673 130.188 181.582 130.461C181.504 130.721 181.426 130.982 181.348 131.242C181.27 131.516 181.198 131.789 181.133 132.062C181.068 132.323 181.009 132.583 180.957 132.844C179.251 132.818 177.526 132.805 175.781 132.805C174.036 132.805 172.363 132.818 170.762 132.844V132.355C171.582 132.355 172.116 132.219 172.363 131.945C172.611 131.672 172.734 131.125 172.734 130.305V120.637C172.734 120.233 172.702 119.908 172.637 119.66C172.585 119.413 172.48 119.224 172.324 119.094C172.181 118.977 171.979 118.898 171.719 118.859C171.471 118.807 171.152 118.781 170.762 118.781V118.273C172.324 118.312 173.932 118.332 175.586 118.332C177.24 118.332 178.802 118.312 180.273 118.273V121.398H179.863C179.811 120.865 179.733 120.435 179.629 120.109C179.538 119.771 179.382 119.51 179.16 119.328C178.952 119.159 178.665 119.042 178.301 118.977C177.936 118.911 177.461 118.879 176.875 118.879H174.043V124.875ZM185.508 123.332C185.469 123.684 185.443 124.035 185.43 124.387C185.43 124.738 185.43 124.992 185.43 125.148C185.703 124.953 185.99 124.745 186.289 124.523C186.602 124.302 186.914 124.107 187.227 123.938C187.552 123.755 187.878 123.605 188.203 123.488C188.529 123.371 188.854 123.312 189.18 123.312C189.648 123.312 190.065 123.449 190.43 123.723C190.807 123.983 191.087 124.445 191.27 125.109C191.816 124.68 192.409 124.276 193.047 123.898C193.685 123.508 194.329 123.312 194.98 123.312C195.371 123.312 195.703 123.397 195.977 123.566C196.263 123.723 196.497 123.938 196.68 124.211C196.862 124.484 196.999 124.803 197.09 125.168C197.181 125.52 197.227 125.884 197.227 126.262V130.91C197.227 131.457 197.311 131.835 197.48 132.043C197.663 132.251 198.027 132.355 198.574 132.355V132.844C198.04 132.831 197.396 132.824 196.641 132.824C195.898 132.811 195.241 132.818 194.668 132.844V132.355C195.228 132.355 195.592 132.251 195.762 132.043C195.944 131.835 196.035 131.457 196.035 130.91V126.984C196.035 126.633 196.016 126.301 195.977 125.988C195.938 125.663 195.853 125.383 195.723 125.148C195.592 124.914 195.397 124.725 195.137 124.582C194.889 124.439 194.544 124.367 194.102 124.367C193.854 124.367 193.594 124.419 193.32 124.523C193.06 124.615 192.799 124.732 192.539 124.875C192.292 125.005 192.057 125.148 191.836 125.305C191.628 125.461 191.458 125.591 191.328 125.695V130.91C191.328 131.457 191.419 131.835 191.602 132.043C191.797 132.251 192.181 132.355 192.754 132.355V132.844C192.467 132.844 192.148 132.844 191.797 132.844C191.458 132.831 191.113 132.824 190.762 132.824C190.397 132.824 190.039 132.824 189.688 132.824C189.349 132.824 189.043 132.831 188.77 132.844V132.355C189.316 132.355 189.674 132.251 189.844 132.043C190.026 131.835 190.117 131.457 190.117 130.91V126.984C190.117 126.633 190.098 126.301 190.059 125.988C190.033 125.663 189.954 125.383 189.824 125.148C189.694 124.914 189.505 124.725 189.258 124.582C189.01 124.439 188.665 124.367 188.223 124.367C188.027 124.367 187.806 124.413 187.559 124.504C187.324 124.582 187.077 124.686 186.816 124.816C186.556 124.96 186.302 125.116 186.055 125.285C185.82 125.441 185.612 125.604 185.43 125.773V130.91C185.43 131.457 185.514 131.835 185.684 132.043C185.866 132.251 186.237 132.355 186.797 132.355V132.844C186.237 132.831 185.573 132.824 184.805 132.824C184.049 132.811 183.379 132.818 182.793 132.844V132.355C183.379 132.355 183.763 132.251 183.945 132.043C184.128 131.835 184.219 131.457 184.219 130.91V126.262C184.219 125.91 184.206 125.63 184.18 125.422C184.167 125.214 184.121 125.051 184.043 124.934C183.965 124.816 183.848 124.738 183.691 124.699C183.535 124.66 183.32 124.641 183.047 124.641V124.23C183.464 124.165 183.841 124.068 184.18 123.938C184.531 123.807 184.85 123.605 185.137 123.332H185.508ZM202.5 123.332C202.461 123.684 202.435 124.022 202.422 124.348C202.422 124.66 202.422 124.868 202.422 124.973C202.617 124.803 202.852 124.621 203.125 124.426C203.411 124.23 203.711 124.048 204.023 123.879C204.323 123.723 204.629 123.592 204.941 123.488C205.267 123.371 205.566 123.312 205.84 123.312C206.361 123.312 206.842 123.443 207.285 123.703C207.728 123.951 208.112 124.283 208.438 124.699C208.75 125.116 208.997 125.591 209.18 126.125C209.362 126.659 209.453 127.199 209.453 127.746C209.453 128.475 209.329 129.172 209.082 129.836C208.835 130.487 208.496 131.06 208.066 131.555C207.624 132.062 207.096 132.46 206.484 132.746C205.885 133.033 205.228 133.176 204.512 133.176C204.251 133.176 203.932 133.137 203.555 133.059C203.177 132.98 202.799 132.805 202.422 132.531V135.617C202.422 135.904 202.441 136.145 202.48 136.34C202.52 136.535 202.611 136.691 202.754 136.809C202.884 136.926 203.073 137.01 203.32 137.062C203.581 137.115 203.926 137.141 204.355 137.141V137.629C204.121 137.603 203.776 137.583 203.32 137.57C202.878 137.57 202.409 137.57 201.914 137.57C201.432 137.57 200.97 137.57 200.527 137.57C200.085 137.583 199.759 137.603 199.551 137.629V137.141C200.241 137.141 200.69 137.043 200.898 136.848C201.12 136.652 201.23 136.255 201.23 135.656V126.262C201.23 125.91 201.217 125.63 201.191 125.422C201.165 125.214 201.113 125.051 201.035 124.934C200.957 124.816 200.84 124.738 200.684 124.699C200.527 124.66 200.312 124.641 200.039 124.641V124.23C200.456 124.165 200.833 124.068 201.172 123.938C201.523 123.807 201.849 123.605 202.148 123.332H202.5ZM202.422 131.008C202.487 131.138 202.578 131.294 202.695 131.477C202.826 131.646 202.988 131.815 203.184 131.984C203.379 132.141 203.613 132.277 203.887 132.395C204.173 132.499 204.512 132.551 204.902 132.551C205.462 132.551 205.951 132.427 206.367 132.18C206.797 131.919 207.148 131.594 207.422 131.203C207.708 130.799 207.917 130.357 208.047 129.875C208.19 129.393 208.262 128.918 208.262 128.449C208.262 127.889 208.197 127.362 208.066 126.867C207.949 126.359 207.767 125.91 207.52 125.52C207.272 125.142 206.953 124.842 206.562 124.621C206.172 124.4 205.716 124.289 205.195 124.289C204.987 124.289 204.746 124.341 204.473 124.445C204.212 124.536 203.952 124.647 203.691 124.777C203.431 124.921 203.184 125.07 202.949 125.227C202.728 125.37 202.552 125.5 202.422 125.617V131.008ZM213.652 131.047C213.652 131.607 213.743 131.965 213.926 132.121C214.108 132.277 214.486 132.355 215.059 132.355V132.844C214.876 132.844 214.707 132.844 214.551 132.844C214.395 132.844 214.238 132.837 214.082 132.824C213.926 132.824 213.763 132.824 213.594 132.824C213.438 132.811 213.268 132.805 213.086 132.805C212.891 132.805 212.708 132.811 212.539 132.824C212.383 132.824 212.227 132.824 212.07 132.824C211.901 132.824 211.732 132.831 211.562 132.844C211.406 132.844 211.237 132.844 211.055 132.844V132.355C211.628 132.355 212.005 132.277 212.188 132.121C212.37 131.965 212.461 131.607 212.461 131.047V126.262C212.461 125.91 212.448 125.63 212.422 125.422C212.396 125.214 212.344 125.051 212.266 124.934C212.188 124.816 212.07 124.738 211.914 124.699C211.758 124.66 211.543 124.641 211.27 124.641V124.23C211.686 124.165 212.064 124.068 212.402 123.938C212.754 123.807 213.079 123.605 213.379 123.332H213.73C213.691 123.684 213.665 124.061 213.652 124.465C213.652 124.855 213.652 125.207 213.652 125.52V131.047ZM212.051 119.055C212.051 118.794 212.142 118.566 212.324 118.371C212.52 118.176 212.747 118.078 213.008 118.078C213.268 118.078 213.496 118.176 213.691 118.371C213.887 118.566 213.984 118.794 213.984 119.055C213.984 119.315 213.887 119.543 213.691 119.738C213.496 119.921 213.268 120.012 213.008 120.012C212.747 120.012 212.52 119.921 212.324 119.738C212.142 119.543 212.051 119.315 212.051 119.055ZM219.043 125.461C219.238 125.201 219.46 124.947 219.707 124.699C219.954 124.439 220.202 124.204 220.449 123.996C220.71 123.801 220.964 123.645 221.211 123.527C221.458 123.397 221.693 123.332 221.914 123.332C222.227 123.332 222.5 123.417 222.734 123.586C222.969 123.742 223.086 123.964 223.086 124.25C223.086 124.562 222.988 124.803 222.793 124.973C222.611 125.129 222.435 125.207 222.266 125.207C222.109 125.207 221.986 125.188 221.895 125.148C221.803 125.096 221.712 125.038 221.621 124.973C221.53 124.908 221.426 124.849 221.309 124.797C221.204 124.745 221.061 124.719 220.879 124.719C220.762 124.719 220.599 124.777 220.391 124.895C220.182 125.012 219.98 125.161 219.785 125.344C219.577 125.526 219.401 125.741 219.258 125.988C219.115 126.223 219.043 126.464 219.043 126.711V130.852C219.043 131.164 219.062 131.424 219.102 131.633C219.154 131.828 219.258 131.978 219.414 132.082C219.57 132.186 219.792 132.258 220.078 132.297C220.365 132.336 220.749 132.355 221.23 132.355V132.844C220.931 132.831 220.56 132.824 220.117 132.824C219.674 132.811 219.219 132.805 218.75 132.805C218.281 132.805 217.826 132.811 217.383 132.824C216.94 132.824 216.569 132.831 216.27 132.844V132.355C216.934 132.355 217.363 132.271 217.559 132.102C217.754 131.932 217.852 131.516 217.852 130.852V126.262C217.852 125.91 217.839 125.63 217.812 125.422C217.786 125.214 217.734 125.051 217.656 124.934C217.578 124.816 217.461 124.738 217.305 124.699C217.148 124.66 216.934 124.641 216.66 124.641V124.23C217.077 124.165 217.454 124.068 217.793 123.938C218.145 123.807 218.47 123.605 218.77 123.332H219.121C219.082 123.684 219.056 124.048 219.043 124.426C219.043 124.803 219.043 125.148 219.043 125.461ZM225.449 127.062C225.41 127.258 225.391 127.466 225.391 127.688C225.391 127.909 225.404 128.195 225.43 128.547C225.495 129.536 225.801 130.37 226.348 131.047C226.895 131.711 227.643 132.043 228.594 132.043C229.245 132.043 229.805 131.919 230.273 131.672C230.755 131.411 231.152 131.092 231.465 130.715L231.738 130.891C231.374 131.542 230.879 132.089 230.254 132.531C229.642 132.961 228.952 133.176 228.184 133.176C227.624 133.176 227.103 133.059 226.621 132.824C226.152 132.59 225.742 132.264 225.391 131.848C225.039 131.431 224.759 130.943 224.551 130.383C224.355 129.823 224.258 129.211 224.258 128.547C224.258 127.727 224.362 126.991 224.57 126.34C224.779 125.689 225.059 125.142 225.41 124.699C225.775 124.243 226.198 123.898 226.68 123.664C227.174 123.43 227.702 123.312 228.262 123.312C228.652 123.312 229.043 123.378 229.434 123.508C229.824 123.638 230.176 123.833 230.488 124.094C230.801 124.367 231.055 124.712 231.25 125.129C231.445 125.533 231.549 126.014 231.562 126.574C231.562 126.73 231.543 126.848 231.504 126.926C231.465 126.991 231.367 127.036 231.211 127.062H225.449ZM229.629 126.438C229.863 126.438 230.033 126.405 230.137 126.34C230.241 126.262 230.293 126.125 230.293 125.93C230.293 125.721 230.241 125.5 230.137 125.266C230.046 125.031 229.915 124.816 229.746 124.621C229.564 124.426 229.342 124.263 229.082 124.133C228.822 124.003 228.522 123.938 228.184 123.938C227.441 123.938 226.842 124.172 226.387 124.641C225.944 125.096 225.651 125.695 225.508 126.438H229.629Z" fill="white"/>
<g clip-path="url(#clip0_9_72)">
<path d="M120.501 137.5L118.526 139.035C118.76 139.336 119.059 139.58 119.401 139.747C119.744 139.915 120.12 140.002 120.501 140.002C120.882 140.002 121.258 139.915 121.601 139.747C121.943 139.58 122.242 139.336 122.476 139.035L120.501 137.5ZM85.5011 92.5L83.3561 91.215C83.0967 91.6474 82.9742 92.1481 83.0045 92.6513C83.0349 93.1546 83.2167 93.6369 83.5261 94.035L85.5011 92.5ZM100.501 67.5V65H99.0861L98.3511 66.215L100.501 67.5ZM140.501 67.5L142.646 66.215L141.916 65H140.501V67.5ZM155.501 92.5L157.476 94.035C157.785 93.6369 157.967 93.1546 157.998 92.6513C158.028 92.1481 157.905 91.6474 157.646 91.215L155.501 92.5ZM122.476 135.965L87.4761 90.965L83.5261 94.035L118.526 139.035L122.476 135.965ZM87.6461 93.785L102.646 68.785L98.3511 66.215L83.3511 91.215L87.6411 93.785H87.6461ZM100.501 70H140.501V65H100.501V70ZM138.356 68.785L153.356 93.785L157.646 91.215L142.646 66.215L138.356 68.785ZM153.526 90.965L118.526 135.965L122.476 139.035L157.476 94.035L153.526 90.965Z" fill="url(#paint0_linear_9_72)"/>
</g>
<defs>
<filter id="filter0_f_9_72" x="0" y="-30" width="339" height="264" filterUnits="userSpaceOnUse" color-interpolation-filters="sRGB">
<feFlood flood-opacity="0" result="BackgroundImageFix"/>
<feBlend mode="normal" in="SourceGraphic" in2="BackgroundImageFix" result="shape"/>
<feGaussianBlur stdDeviation="50" result="effect1_foregroundBlur_9_72"/>
</filter>
<linearGradient id="paint0_linear_9_72" x1="120.501" y1="65" x2="120.501" y2="140.002" gradientUnits="userSpaceOnUse">
<stop stop-color="#0E7797"/>
<stop offset="1" stop-color="#9D5A0D"/>
</linearGradient>
<clipPath id="clip0_9_72">
<rect width="75" height="75" fill="white" transform="translate(83 65)"/>
</clipPath>
</defs>
</svg>
