<svg width="24" height="24" viewBox="0 0 24 24" fill="none" xmlns="http://www.w3.org/2000/svg">
<g id="mdi-light:heart">
<path id="Vector" d="M4.24 12.25C3.84416 11.8576 3.53059 11.3901 3.31767 10.875C3.10475 10.3598 2.99675 9.80738 3 9.24999C3 8.12282 3.44777 7.04182 4.2448 6.24479C5.04183 5.44776 6.12283 4.99999 7.25 4.99999C8.83 4.99999 10.21 5.85999 10.94 7.13999H12.06C12.4312 6.48912 12.9682 5.9482 13.6164 5.5723C14.2645 5.1964 15.0007 4.99893 15.75 4.99999C16.8772 4.99999 17.9582 5.44776 18.7552 6.24479C19.5522 7.04182 20 8.12282 20 9.24999C20 10.42 19.5 11.5 18.76 12.25L11.5 19.5L4.24 12.25ZM19.46 12.96C20.41 12 21 10.7 21 9.24999C21 7.8576 20.4469 6.52225 19.4623 5.53768C18.4777 4.55311 17.1424 3.99999 15.75 3.99999C14 3.99999 12.45 4.84999 11.5 6.16999C11.0152 5.49637 10.3767 4.9481 9.63759 4.5707C8.89844 4.19329 8.07993 3.99764 7.25 3.99999C5.85761 3.99999 4.52226 4.55311 3.53769 5.53768C2.55312 6.52225 2 7.8576 2 9.24999C2 10.7 2.59 12 3.54 12.96L11.5 20.92L19.46 12.96Z" fill="white"/>
</g>
</svg>
