<svg width="75" height="75" viewBox="0 0 75 75" fill="none" xmlns="http://www.w3.org/2000/svg">
<g clip-path="url(#clip0_6_60)">
<path d="M37.5011 72.5L35.5261 74.035C35.7597 74.3361 36.0592 74.5798 36.4015 74.7475C36.7438 74.9151 37.1199 75.0022 37.5011 75.0022C37.8822 75.0022 38.2583 74.9151 38.6006 74.7475C38.9429 74.5798 39.2424 74.3361 39.4761 74.035L37.5011 72.5ZM2.50105 27.5L0.356053 26.215C0.0967279 26.6474 -0.0258071 27.1481 0.00453149 27.6513C0.0348701 28.1546 0.216665 28.6369 0.526053 29.035L2.50105 27.5ZM17.5011 2.5V0H16.0861L15.3511 1.215L17.5011 2.5ZM57.5011 2.5L59.6461 1.215L58.9161 0H57.5011V2.5ZM72.5011 27.5L74.4761 29.035C74.7854 28.6369 74.9672 28.1546 74.9976 27.6513C75.0279 27.1481 74.9054 26.6474 74.6461 26.215L72.5011 27.5ZM39.4761 70.965L4.47605 25.965L0.526053 29.035L35.5261 74.035L39.4761 70.965ZM4.64605 28.785L19.6461 3.785L15.3511 1.215L0.351053 26.215L4.64105 28.785H4.64605ZM17.5011 5H57.5011V0H17.5011V5ZM55.3561 3.785L70.3561 28.785L74.6461 26.215L59.6461 1.215L55.3561 3.785ZM70.5261 25.965L35.5261 70.965L39.4761 74.035L74.4761 29.035L70.5261 25.965Z" fill="url(#paint0_linear_6_60)"/>
</g>
<defs>
<linearGradient id="paint0_linear_6_60" x1="37.5011" y1="0" x2="37.5011" y2="75.0022" gradientUnits="userSpaceOnUse">
<stop stop-color="#0E7797"/>
<stop offset="1" stop-color="#9D5A0D"/>
</linearGradient>
<clipPath id="clip0_6_60">
<rect width="75" height="75" fill="white"/>
</clipPath>
</defs>
</svg>
